<!--?xml version="1.0" standalone="no"?-->
              <svg id="sw-js-blob-svg" viewBox="0 0 100 100" xmlns="http://www.w3.org/2000/svg" version="1.1">
                    <defs> 
                        <linearGradient id="sw-gradient" x1="0" x2="1" y1="1" y2="0">
                            <stop id="stop1" stop-color="rgba(248, 117, 55, 1)" offset="0%"></stop>
                            <stop id="stop2" stop-color="rgba(251, 168, 31, 1)" offset="100%"></stop>
                        </linearGradient>
                    </defs>
                <path fill="url(#sw-gradient)" d="M24.1,-28.6C31,-22.8,36.4,-15.1,38.6,-6.3C40.8,2.6,39.8,12.5,34.7,19C29.7,25.5,20.6,28.6,11.7,31.6C2.8,34.5,-5.9,37.4,-13.7,35.5C-21.4,33.6,-28.2,26.9,-31.5,19.2C-34.8,11.5,-34.6,2.7,-33,-5.7C-31.4,-14.1,-28.4,-22.2,-22.7,-28.2C-16.9,-34.2,-8.5,-38.2,0,-38.3C8.5,-38.3,17.1,-34.4,24.1,-28.6Z" width="100%" height="100%" transform="translate(50 50)" stroke-width="0" style="transition: all 0.3s ease 0s;" stroke="url(#sw-gradient)"></path>
              </svg>